PathFileType	4	(X/Y/Z)	C:/Users/opensim2020/Desktop/walking_exp_matlab/subject06_walking15_straight_03.trc																																																																																																																																											
DataRate	CameraRate	NumFrames	NumMarkers	Units	OrigDataRate	OrigDataStartFrame	OrigNumFrames																																																																																																																																							
100	100	7	47	mm	100	2305	193																																																																																																																																							
Frame#	Time	LFHD			RFHD			LBHD			RBHD			C7			T10			CLAV			STRN			RBAK			LSHO			LUPA			LELB			LFRM			LWRA			LWRB			LFIN			RSHO			RUPA			RELB			RFRM			RWRA			RWRB			RFIN			LASI			RASI			LPSI			RPSI			LTHI			LKNE			LTIB			LANK			LHEE			LTOE			RTHI			RKNE			RTIB			RANK			RHEE			RTOE			*39			*40			*41			*42			*43			*44			*45			*46		
		X1	Y1	Z1	X2	Y2	Z2	X3	Y3	Z3	X4	Y4	Z4	X5	Y5	Z5	X6	Y6	Z6	X7	Y7	Z7	X8	Y8	Z8	X9	Y9	Z9	X10	Y10	Z10	X11	Y11	Z11	X12	Y12	Z12	X13	Y13	Z13	X14	Y14	Z14	X15	Y15	Z15	X16	Y16	Z16	X17	Y17	Z17	X18	Y18	Z18	X19	Y19	Z19	X20	Y20	Z20	X21	Y21	Z21	X22	Y22	Z22	X23	Y23	Z23	X24	Y24	Z24	X25	Y25	Z25	X26	Y26	Z26	X27	Y27	Z27	X28	Y28	Z28	X29	Y29	Z29	X30	Y30	Z30	X31	Y31	Z31	X32	Y32	Z32	X33	Y33	Z33	X34	Y34	Z34	X35	Y35	Z35	X36	Y36	Z36	X37	Y37	Z37	X38	Y38	Z38	X39	Y39	Z39	X40	Y40	Z40	X41	Y41	Z41	X42	Y42	Z42	X43	Y43	Z43	X44	Y44	Z44	X45	Y45	Z45	X46	Y46	Z46	X47	Y47	Z47
																																																																																																																																														
169	1.68	594.70685	1644.50452	1376.38904	603.56903	1636.47607	1508.32581	460.90759	1592.36536	1385.66602	469.74243	1589.09875	1514.66064	461.47507	1434.5083	1438.05872	425.6373	1105.22534	1446.89026	570.74701	1356.61609	1440.64771	609.97681	1182.18396	1433.27063	385.1196	1264.34583	1511.56226	519.13483	1389.42371	1278.59998	559.40332	1194.85901	1199.53748	593.44421	1087.98071	1182.42017	706.81665	991.24542	1167.31201	826.06244	956.70367	1218.87866	791.67322	908.11121	1181.52356	878.36121	886.4043	1183.49805	520.49878	1388.12659	1601.11279	449.56503	1198.50171	1684.44446	438.50919	1075.73059	1694.59192	431.88617	955.37787	1710.73657	465.05734	806.58563	1677.50854	412.92068	818.77655	1718.10327	432.89679	736.29016	1718.74402	601.19159	943.65247	1336.23547	608.94318	954.49988	1557.73035	443.18991	971.24432	1370.8717	455.00397	973.75909	1539.78943	502.47433	632.17365	1292.12695	470.44421	470.09961	1318.48767	345.2796	242.77792	1326.51135	268.59927	87.6469	1369.0647	219.81195	84.89217	1409.72949	401.26678	38.83075	1384.40515	625.4585	628.82605	1632.02588	676.37823	512.80817	1606.39709	713.65826	255.39886	1599.82922	772.97076	77.19655	1559.97559	749.89191	49.48282	1507.80762	931.94568	68.64531	1577.36816	498.35541	1685.77673	1440.59619	NaN	NaN	NaN	NaN	NaN	NaN	NaN	NaN	NaN	NaN	NaN	NaN	NaN	NaN	NaN	NaN	NaN	NaN	NaN	NaN	NaN
170	1.69	605.53516	1643.64758	1377.23584	614.37921	1635.73291	1509.15674	471.85324	1591.29919	1386.44287	480.59769	1588.08459	1515.41833	472.63419	1433.54822	1438.91614	437.21649	1104.29187	1447.77881	581.96997	1355.69397	1441.54736	621.35339	1181.34778	1434.19006	396.24243	1263.27869	1512.27771	530.44153	1388.40918	1279.51672	571.14911	1193.97339	1200.59985	605.36017	1087.19836	1183.61121	719.42456	991.60675	1169.1676	839.33832	958.97229	1220.65918	805.58911	909.75568	1183.37292	892.62201	889.33429	1185.53259	531.46082	1387.16382	1601.99609	460.358	1197.55981	1685.2804	449.19617	1074.88892	1695.42957	442.40146	954.43127	1711.58557	475.32211	805.58124	1678.5509	423.09149	817.89044	1718.96582	442.87366	735.36371	1719.77234	612.63483	942.47571	1336.83801	620.86182	953.83014	1558.53894	454.6796	970.12268	1372.11011	466.995	972.96912	1540.99866	511.92639	631.43762	1292.79272	478.30109	469.68613	1319.0426	349.30048	244.24139	1326.88892	270.05646	90.41118	1368.79358	221.17134	88.50462	1409.39587	401.66525	38.91394	1384.27881	636.27332	627.68677	1632.73535	686.19653	511.47183	1606.26929	726.53253	254.54771	1599.18652	790.10016	77.42596	1559.42969	767.6156	48.72707	1507.54077	949.56354	73.54917	1575.55115	509.13501	1684.82117	1441.35583	NaN	NaN	NaN	NaN	NaN	NaN	NaN	NaN	NaN	NaN	NaN	NaN	NaN	NaN	NaN	NaN	NaN	NaN	NaN	NaN	NaN
171	1.7	616.38196	1642.88	1378.07715	625.22766	1635.06116	1510.02637	482.745	1590.27319	1387.28003	491.38898	1587.1217	1516.25037	483.81943	1432.62549	1439.81897	448.97552	1103.34607	1448.68213	593.28119	1354.93787	1442.5824	632.94678	1180.59753	1435.13916	407.68124	1262.23303	1512.9873	541.7132	1387.47095	1280.58887	582.84991	1193.16113	1201.75964	617.48212	1086.52759	1184.62646	732.39319	991.85333	1170.31433	852.14819	960.73816	1222.44458	819.00153	911.04681	1185.27698	906.50208	891.49976	1187.47192	542.4975	1386.32202	1602.93445	471.45264	1196.75464	1686.02771	460.30438	1073.9762	1696.23169	453.4086	953.55096	1712.25366	485.91608	804.61664	1679.50146	433.67178	817.12646	1719.95056	453.29752	734.53674	1720.80408	624.27814	941.46692	1337.92725	632.93561	953.24255	1559.54272	466.37491	969.04321	1373.43945	479.07727	972.37335	1542.2771	521.40674	630.89063	1293.69763	486.59079	469.23441	1319.91907	353.87256	246.0349	1327.47083	271.68961	93.52567	1368.70129	222.85001	92.56504	1409.24207	402.12466	39.04661	1384.36023	647.08679	626.49811	1633.23596	696.23883	510.47543	1606.13818	738.82123	253.83232	1598.97473	804.80774	77.20325	1559.08618	782.11383	47.72874	1507.44434	964.69714	76.58146	1573.73804	519.84717	1683.88989	1442.13403	NaN	NaN	NaN	NaN	NaN	NaN	NaN	NaN	NaN	NaN	NaN	NaN	NaN	NaN	NaN	NaN	NaN	NaN	NaN	NaN	NaN
172	1.71	627.21765	1642.16064	1378.95508	635.6131	1634.29883	1510.47412	493.67105	1589.33154	1388.17712	502.30521	1586.28699	1517.04431	495.13159	1431.71228	1440.81897	461.00647	1102.42883	1449.64648	604.57275	1354.11841	1443.52026	644.72638	1179.94897	1436.17432	419.22141	1261.2594	1513.85938	553.03625	1386.61743	1281.69263	594.41663	1192.36951	1203.0293	629.18445	1085.60815	1185.96533	744.55127	992.01508	1172.04126	864.4754	962.03711	1224.26587	831.84979	912.00067	1187.09021	919.59052	893.29877	1189.43848	553.7168	1385.5376	1603.8927	482.60596	1195.90051	1687.02466	471.61642	1073.20288	1697.17224	464.48035	952.82458	1713.40906	497.02396	803.88098	1680.67175	444.63477	816.401	1720.99646	464.16489	733.87817	1722.01135	635.63824	940.29175	1338.60071	645.19678	952.66467	1560.54761	478.72446	968.06073	1374.88696	491.43033	971.88263	1543.53101	531.28772	630.34741	1294.76965	495.41064	468.8399	1320.57495	358.45547	248.01305	1327.93445	273.61237	97.02505	1368.70044	224.77742	96.99245	1409.26001	402.52817	39.18462	1384.36658	658.19061	625.47656	1633.58521	706.90436	509.76123	1605.96265	751.00916	253.13795	1599.15369	817.21503	76.44033	1558.85352	794.75208	46.1819	1507.98193	977.05823	77.72237	1571.55737	530.604	1683.04175	1442.91443	NaN	NaN	NaN	NaN	NaN	NaN	NaN	NaN	NaN	NaN	NaN	NaN	NaN	NaN	NaN	NaN	NaN	NaN	NaN	NaN	NaN
173	1.72	638.01727	1641.50903	1379.91492	646.83356	1633.93579	1511.7998	504.59576	1588.3822	1389.12036	513.17084	1585.48267	1518.0105	506.27826	1430.85449	1441.94604	472.86975	1101.56787	1450.73792	616.17816	1353.65137	1444.74377	656.57013	1179.38818	1437.16028	431.02017	1260.26013	1514.8385	564.25049	1385.77612	1282.89282	605.90387	1191.59631	1204.33716	640.27515	1084.8335	1187.44739	756.19702	991.79785	1173.59094	876.30487	962.86603	1226.08252	844.14386	912.51044	1188.94226	931.922	894.53784	1191.50122	565.05573	1384.86707	1604.9198	494.01428	1195.16858	1688.02539	483.15451	1072.46851	1698.13831	475.91583	952.12109	1714.38367	508.35403	803.12952	1681.85559	455.93848	815.73431	1722.09082	475.42911	733.16113	1723.27905	647.41223	939.30573	1339.28735	657.7547	952.21625	1561.65454	490.58099	967.34277	1376.25146	504.03378	971.45654	1544.78088	541.28632	629.69879	1296.13672	504.98691	468.28433	1321.5946	363.60938	250.27621	1328.20142	275.8111	100.85887	1368.79944	227.00266	101.93645	1409.53516	403.01602	39.30919	1384.39001	669.67871	624.52118	1633.625	718.33008	509.49118	1606.01721	762.77063	252.2578	1599.61707	826.93195	74.82902	1558.59717	803.44501	44.13902	1507.85986	986.45416	77.55624	1569.19531	541.29608	1682.2373	1443.82336	NaN	NaN	NaN	NaN	NaN	NaN	NaN	NaN	NaN	NaN	NaN	NaN	NaN	NaN	NaN	NaN	NaN	NaN	NaN	NaN	NaN
174	1.73	648.85999	1640.96533	1380.85754	657.68713	1633.42188	1512.74097	515.43085	1587.49622	1390.10364	523.98651	1584.66772	1518.96179	517.59753	1429.92664	1443.01331	485.1207	1100.625	1451.99487	627.73273	1353.15906	1445.86475	668.65802	1178.92773	1438.31543	442.85037	1259.2196	1515.89648	575.45782	1384.93018	1284.08215	617.21271	1190.7865	1205.78979	650.97461	1083.85437	1189.17688	767.45734	991.46222	1175.21118	887.67535	963.23529	1227.85718	855.81018	912.65753	1190.7832	943.75262	895.08472	1193.67236	576.47522	1384.24475	1605.94617	505.591	1194.52808	1689.10889	494.8493	1071.82837	1699.19739	487.61719	951.47644	1715.49219	520.08649	802.4137	1682.99866	467.62982	815.06873	1723.20349	487.04163	732.54816	1724.5177	659.60046	938.71887	1340.5387	670.59137	951.83398	1562.70483	503.30508	966.50586	1377.77393	517.00061	970.90375	1545.99878	551.96808	628.96082	1297.32471	515.48444	467.65051	1322.62671	369.43866	252.54247	1328.94507	278.41171	105.05346	1369.0249	229.68318	107.28405	1409.93689	403.4838	39.59644	1384.75171	681.76447	623.81885	1633.5509	730.79962	509.48853	1605.67371	773.9093	251.12971	1600.2135	834.16229	72.46582	1558.41309	809.31299	41.70727	1508.25281	993.12036	75.93217	1566.33789	551.98669	1681.46118	1444.6958	NaN	NaN	NaN	NaN	NaN	NaN	NaN	NaN	NaN	NaN	NaN	NaN	NaN	NaN	NaN	NaN	NaN	NaN	NaN	NaN	NaN
175	1.74	659.55481	1640.33398	1381.80115	668.53369	1632.92493	1513.69702	526.28894	1586.65344	1391.15857	535.01593	1583.9375	1519.97424	528.73883	1428.93384	1444.24341	497.72632	1099.66052	1453.40137	639.27997	1352.53406	1446.99817	680.9834	1178.55408	1439.50452	454.82947	1258.17578	1517.12402	586.66077	1384.03735	1285.37537	628.37183	1189.93579	1207.3728	661.72913	1082.81543	1190.94861	778.02661	990.57886	1177.11438	898.5932	963.12512	1229.5376	867.06616	912.41949	1192.38171	955.18091	895.16028	1195.39282	588.03967	1383.66174	1607.02356	517.45111	1193.97485	1690.19104	506.77798	1071.18921	1700.34326	499.67868	950.87531	1716.68677	532.22546	801.88666	1684.28369	479.67667	814.4906	1724.44702	499.19531	731.9903	1725.80493	671.83624	937.8736	1341.24182	683.74469	951.4314	1563.68909	515.7226	965.94745	1379.25574	530.24493	970.28198	1547.36414	563.24512	628.05774	1298.35925	526.73395	466.62665	1323.84119	376.04614	254.93719	1329.9762	281.47885	109.6627	1369.53271	233.01285	113.09741	1410.54846	404.29623	39.87617	1384.89355	694.86102	623.45258	1633.27173	744.76941	510.11426	1604.552	783.79907	249.47073	1600.8031	839.4845	69.76883	1558.11011	813.21344	40.32172	1509.02454	997.82758	71.97728	1563.28796	562.62024	1680.68225	1445.62024	NaN	NaN	NaN	NaN	NaN	NaN	NaN	NaN	NaN	NaN	NaN	NaN	NaN	NaN	NaN	NaN	NaN	NaN	NaN	NaN	NaN
